<?xml version="1.0" encoding="UTF-8"?><svg id="Layer_1" xmlns="http://www.w3.org/2000/svg" viewBox="0 0 216 216"><defs><style>.cls-1{fill:#ff0100;}.cls-2{fill:#fbe74d;}</style></defs><circle class="cls-1" cx="109.29" cy="108.17" r="90.18"/><g><path class="cls-1" d="M109.29,191.14c-45.75,0-82.97-37.22-82.97-82.97S63.54,25.2,109.29,25.2s82.97,37.22,82.97,82.97-37.22,82.97-82.97,82.97Z"/><path class="cls-2" d="M109.29,27.2c44.72,0,80.97,36.25,80.97,80.97s-36.25,80.97-80.97,80.97S28.32,152.89,28.32,108.17,64.57,27.2,109.29,27.2m0-4c-46.85,0-84.97,38.12-84.97,84.97s38.12,84.97,84.97,84.97,84.97-38.12,84.97-84.97S156.14,23.2,109.29,23.2h0Z"/></g><path class="cls-2" d="M97.64,156.47s-5.27,14.05-9.13,16.71c-3.86,2.67-2.76-1.47-2.76-1.47,0,0,2.76,1.44,10.21-15.95l1.68,.71Z"/><g><ellipse class="cls-2" cx="108" cy="118.16" rx="40.17" ry="49.9" transform="translate(-32.91 194.14) rotate(-75.91)"/><path class="cls-2" d="M59.25,107.6l98.05,12.41s-2.52-48.54-29.55-67.08l-10.14-2.55c-52.66,26.3-58.01,55.63-58.01,55.63"/><path class="cls-2" d="M117.61,50.38s4.52-2.78,7.47-8.46c0,0,3.41,5.79,7.17,11.86,3.5,5.65,7.29,11.53,8.92,13.2l-19.26-12.25-4.3-4.35Z"/></g><path class="cls-1" d="M95.66,156.33c6.9-17.69,16.32-39.67,23.11-57.14,2.12-6.47,3.5-13.21,5.08-19.83,2.06-8.91,2.15-18.13,.96-27.18,.64,4.52,1.16,9.07,1.11,13.66,0,10.35-2.85,20.39-5.01,30.42-3.72,12.04-9.21,23.42-13.52,35.23,0,0-9.85,25.56-9.85,25.56l-1.86-.72h0Z"/><path class="cls-1" d="M101.62,144.09c-5.8-3.29-11.35-6.89-16.62-10.95-5.18-4.05-10.32-8.5-13.76-14.18,3.71,5.48,9,9.6,14.35,13.37,5.38,3.73,11.1,7.05,16.94,9.98,0,0-.92,1.78-.92,1.78h0Z"/><path class="cls-1" d="M102.27,142.22c9.65,1.81,22.99,3.8,31.81-1.38-2.21,1.64-4.86,2.56-7.53,3.19-8.1,1.77-16.5,1.27-24.67,.15,0,0,.38-1.96,.38-1.96h0Z"/><path class="cls-1" d="M114.85,109.98c-5.11-2.71-10-5.72-14.65-9.14-4.56-3.42-9.13-7.2-12.04-12.17,1.55,2.42,3.6,4.43,5.75,6.29,4.33,3.69,9.21,6.69,14.19,9.42,2.5,1.35,5.05,2.65,7.61,3.8l-.86,1.81h0Z"/><path class="cls-1" d="M115.41,108.09c9.44,1.18,19.32,2.42,28.69,.18,1.32-.38,2.61-.89,3.73-1.71-1.07,.89-2.35,1.49-3.66,1.95-9.36,2.83-19.37,2.18-29.02,1.56,0,0,.25-1.98,.25-1.98h0Z"/><path class="cls-1" d="M124.88,75.65c-4.35-1.75-8.94-3.64-12.14-7.18,.84,.83,1.82,1.47,2.83,2.05,3.03,1.69,6.41,2.81,9.74,3.69,0,0-.43,1.44-.43,1.44h0Z"/><path class="cls-1" d="M125.19,74.19c3.65,.53,8.16,.7,10.93-2.17-1.81,2.52-5.12,3.3-8.05,3.59-1.02,.09-2.01,.13-3.07,.07l.19-1.49h0Z"/></svg>